# xmcd
#
# Track frame offsets:
#	150
#	15768
#	29765
#	45100
#	63045
#	79515
#	95918
#	117958
#	135610
#	151765
#
# Disc length: 2163 seconds
#
# Revision: 2
# Processed by: cddbd v1.5PL3 Copyright (c) Steve Scherf et al.
# Submitted via: audiograbber 1.83.01
#
DISCID=6a08710a
DTITLE=Brush Arbor - What Does It Take
DYEAR=1991
DGENRE=Country Gospel
TTITLE0=What Does It Take
TTITLE1=Grow Me
TTITLE2=I Give My Whole Life
TTITLE3=Knockin' At The Door
TTITLE4=Brokenhearted
TTITLE5=I'd Start All Over Again
TTITLE6=What About Him?
TTITLE7=There's Still Power In The Blood
TTITLE8=How Could You Say No?
TTITLE9=Somebody Touched Me
EXTD=
EXTT0=
EXTT1=
EXTT2=
EXTT3=
EXTT4=
EXTT5=
EXTT6=
EXTT7=
EXTT8=
EXTT9=
PLAYORDER=
